<svg width="40" height="40" viewBox="0 0 40 40" fill="none" xmlns="http://www.w3.org/2000/svg">
<g id="Group 38">
<g id="Group 18">
<path id="Vector" d="M27.3062 5.04795C25.7871 5.04274 24.2906 5.43212 22.9508 6.18115C21.6111 6.93018 20.4701 8.01541 19.6302 9.33948C18.5456 7.60713 16.9544 6.28818 15.0943 5.57952C13.2341 4.87086 11.2047 4.8105 9.30907 5.40745C7.41342 6.0044 5.75317 7.22664 4.57617 8.89172C3.39917 10.5568 2.76855 12.5754 2.77843 14.6462C2.77843 28.9052 19.6302 33.8889 19.6302 33.8889C19.6302 33.8889 36.482 29.2743 36.482 14.6462C36.482 12.1006 35.5153 9.65924 33.7945 7.85921C32.0737 6.05919 29.7398 5.04795 27.3062 5.04795Z" stroke="#67594C" stroke-width="2" stroke-miterlimit="10" stroke-linejoin="round"/>
</g>
</g>
</svg>
