<svg width="27" height="24" viewBox="0 0 27 24" fill="none" xmlns="http://www.w3.org/2000/svg">
<g id="Group 41">
<g id="Group 18">
<path id="Vector" d="M19.7167 3.02877C18.8053 3.02564 17.9073 3.25927 17.1035 3.70869C16.2997 4.15811 15.6151 4.80925 15.1111 5.60369C14.4604 4.56428 13.5057 3.77291 12.3896 3.34771C11.2735 2.92251 10.0558 2.8863 8.91845 3.24447C7.78106 3.60264 6.78491 4.33599 6.07871 5.33503C5.37251 6.33408 4.99414 7.54525 5.00007 8.78773C5.00007 17.3431 15.1111 20.3333 15.1111 20.3333C15.1111 20.3333 25.2222 17.5646 25.2222 8.78773C25.2222 7.26036 24.6422 5.79554 23.6097 4.71553C22.5772 3.63551 21.1769 3.02877 19.7167 3.02877Z" fill="#D2CDBC" stroke="#D2CDBC" stroke-width="2" stroke-miterlimit="10" stroke-linejoin="round"/>
</g>
</g>
</svg>
