<svg width="24" height="24" viewBox="0 0 24 24" fill="none" xmlns="http://www.w3.org/2000/svg">
<g id="Group 42">
<g id="Group 21">
<path id="Vector" d="M21.3329 6.50735V14.9858C21.3329 15.8275 21.0051 16.6348 20.4215 17.23C19.838 17.8252 19.0465 18.1596 18.2212 18.1596H16.143V21.3335L9.90865 18.1596H5.75238C5.34374 18.1596 4.9391 18.0775 4.56156 17.918C4.18403 17.7585 3.84099 17.5248 3.55204 17.23C2.96847 16.6348 2.64063 15.8275 2.64062 14.9858V6.50735C2.64063 5.6656 2.96847 4.85831 3.55204 4.2631C4.13561 3.66788 4.92709 3.3335 5.75238 3.3335H18.2212C19.0465 3.3335 19.838 3.66788 20.4215 4.2631C21.0051 4.85831 21.3329 5.6656 21.3329 6.50735Z" fill="#D2CDBC" stroke="#D2CDBC" stroke-width="2" stroke-miterlimit="10"/>
<path id="Vector_2" d="M6.79443 8.87207H17.179" stroke="#FAF9F6" stroke-width="1.5" stroke-miterlimit="10" stroke-linecap="round" stroke-linejoin="round"/>
<path id="Vector_3" d="M6.79443 13.0259H17.179" stroke="#FAF9F6" stroke-width="1.5" stroke-miterlimit="10" stroke-linecap="round" stroke-linejoin="round"/>
</g>
</g>
</svg>
