<svg width="64" height="64" viewBox="0 0 64 64" fill="none" xmlns="http://www.w3.org/2000/svg">
<g id="Group 9">
<circle id="Ellipse 6" cx="32" cy="32" r="32" fill="#FFAB5D"/>
<path id="Arrow 1" d="M18.9087 31C18.3564 31 17.9087 31.4477 17.9087 32C17.9087 32.5523 18.3564 33 18.9087 33L18.9087 31ZM45.7976 32.7071C46.1881 32.3166 46.1881 31.6834 45.7976 31.2929L39.4337 24.9289C39.0431 24.5384 38.41 24.5384 38.0194 24.9289C37.6289 25.3195 37.6289 25.9526 38.0194 26.3431L43.6763 32L38.0194 37.6569C37.6289 38.0474 37.6289 38.6805 38.0194 39.0711C38.41 39.4616 39.0431 39.4616 39.4337 39.0711L45.7976 32.7071ZM18.9087 33L45.0905 33L45.0905 31L18.9087 31L18.9087 33Z" fill="#FFF8F2"/>
</g>
</svg>
